<svg width="179" height="52" viewBox="0 0 179 52" fill="none" xmlns="http://www.w3.org/2000/svg">
<path d="M64.5777 35.7682V16.3148H57.0903V12.5199H76.6805V16.3148H69.1932V35.7682H64.5777Z" fill="white"/>
<path d="M84.7464 36.281C79.3104 36.281 75.9599 32.6228 75.9599 26.6398C75.9599 20.4175 79.4129 16.9302 84.7464 16.9302C90.1482 16.9302 93.4987 20.6226 93.4987 26.6398C93.4987 32.7938 90.0456 36.281 84.7464 36.281ZM84.7464 32.657C87.5157 32.657 88.9858 30.5373 88.9858 26.6398C88.9858 22.7423 87.4815 20.5542 84.7464 20.5542C81.9429 20.5542 80.4728 22.7081 80.4728 26.6398C80.4728 30.5031 81.9771 32.657 84.7464 32.657Z" fill="white"/>
<path d="M96.6801 35.7682V11.1523H101.056V25.1013L107.689 17.443H112.817L105.432 25.58L113.33 35.7682H107.962L101.056 26.9133V35.7682H96.6801Z" fill="white"/>
<path d="M130.96 29.7852C129.969 34.0246 126.687 36.281 122.31 36.281C116.772 36.281 113.387 32.6228 113.387 26.6398C113.387 20.4175 116.806 16.9302 122.14 16.9302C127.507 16.9302 130.823 20.5542 130.823 26.4689V27.4945H117.9C118.105 30.845 119.644 32.6912 122.31 32.6912C124.362 32.6912 125.764 31.7339 126.345 29.7852H130.96ZM122.14 20.52C119.815 20.52 118.413 21.9901 118.003 24.7594H126.242C125.832 22.0243 124.43 20.52 122.14 20.52Z" fill="white"/>
<path d="M134.107 35.7682V17.443H138.484V19.9046C139.68 17.9217 141.595 16.9302 143.92 16.9302C147.578 16.9302 150.074 19.1183 150.074 23.5628V35.7682H145.697V24.4517C145.697 21.956 144.638 20.5542 142.415 20.5542C139.988 20.5542 138.484 22.6739 138.484 25.1355V35.7682H134.107Z" fill="white"/>
<path d="M154.107 15.3917V11.1523H158.483V15.3917H154.107ZM154.107 35.7682V17.443H158.483V35.7682H154.107Z" fill="white"/>
<path d="M173.837 35.7682L170.419 30.6399L169.564 28.9988L168.675 30.6399L165.359 35.7682H160.641L167.171 26.2979L161.119 17.443H166.282L169.188 21.9218L170.077 23.597L170.966 21.9218L173.837 17.443H178.521L172.47 26.2979L179 35.7682H173.837Z" fill="white"/>
<rect y="26" width="36.2627" height="36.2627" rx="5" transform="rotate(-45 0 26)" fill="url(#paint0_linear_2186_313)"/>
<path fill-rule="evenodd" clip-rule="evenodd" d="M17.7403 17.3453C18.5041 16.7286 19.8249 16.81 20.4537 17.5619C21.5297 18.8421 22.5811 20.1406 23.6475 21.4273C25.0111 23.0904 26.3978 24.7377 27.7454 26.4116C25.4021 29.1916 23.091 31.9938 20.7611 34.7832C20.4033 35.1922 20.098 35.653 19.6369 35.9732C19.202 36.2751 18.616 36.3698 18.0895 36.2579C17.5823 36.1424 17.1388 35.7976 16.9492 35.3461C16.8239 35.0827 16.826 34.7901 16.8475 34.5089C16.9128 34.1049 17.1479 33.7442 17.4173 33.4275C19.4505 31.1088 21.4756 28.7841 23.5109 26.4664C23.0364 25.8911 22.5265 25.3386 22.0385 24.7722C20.6417 23.1831 19.2502 21.5901 17.8565 19.9986C17.563 19.6739 17.2968 19.3108 17.1902 18.8939C17.0574 18.3374 17.2711 17.7198 17.7403 17.3453Z" fill="white"/>
<path fill-rule="evenodd" clip-rule="evenodd" d="M31.6714 17.2535C32.0667 16.9842 32.5798 16.8988 33.0619 16.9531C33.6451 17.0434 34.1743 17.4238 34.3768 17.9403C34.613 18.52 34.4148 19.1776 34.0034 19.6463C32.3795 21.5215 30.7384 23.3839 29.1214 25.2636C29.0347 25.2108 28.9854 25.123 28.92 25.0519C28.2784 24.2788 27.6217 23.5156 26.9886 22.7371C28.2591 21.2137 29.5215 19.6848 30.7888 18.1588C31.0598 17.8396 31.304 17.4884 31.6714 17.2535Z" fill="white"/>
<path fill-rule="evenodd" clip-rule="evenodd" d="M28.9288 27.754C28.9915 27.6874 29.0317 27.5971 29.12 27.5552C30.7606 29.4566 32.4156 31.3481 34.0626 33.2445C34.3341 33.5489 34.596 33.877 34.7096 34.2628C34.866 34.7946 34.708 35.398 34.2934 35.7981C33.5768 36.4991 32.1949 36.4799 31.5222 35.7329C31.052 35.209 30.6203 34.6565 30.1645 34.1217C29.082 32.8094 27.9738 31.5138 26.9021 30.1946C27.5839 29.3855 28.2524 28.5666 28.9288 27.754Z" fill="white"/>
<defs>
<linearGradient id="paint0_linear_2186_313" x1="36.6308" y1="25.9238" x2="19.2312" y2="51.5653" gradientUnits="userSpaceOnUse">
<stop stop-color="#1D83A8"/>
<stop offset="1" stop-color="#A06FD6"/>
</linearGradient>
</defs>
</svg>
